<svg id="layer_2" data-name="layer 2" xmlns="http://www.w3.org/2000/svg" xmlns:xlink="http://www.w3.org/1999/xlink" width="619.51" height="384.477" viewBox="0 0 619.51 384.477">
  <defs>
    <linearGradient id="linear-gradient" x1="0.5" y1="1" x2="0.5" gradientUnits="objectBoundingBox">
      <stop offset="0" stop-color="gray" stop-opacity="0.251"/>
      <stop offset="0.54" stop-color="gray" stop-opacity="0.122"/>
      <stop offset="1" stop-color="gray" stop-opacity="0.102"/>
    </linearGradient>
    <linearGradient id="linear-gradient-2" x1="0.5" x2="0.5" xlink:href="#linear-gradient"/>
  </defs>
  <path id="Path_199" data-name="Path 199" d="M661.29,331.332c-.522.388-1,.765-1.513,1.131a50.856,50.856,0,0,1-5.913,3.67c-10.74,5.763-23.98,8.578-36.875,10.49-28.922,4.292-58.448,5.126-87.85,5.944-79.443,2.22-159.079,4.435-238.329-.68-31.312-2.018-63.312-5.4-91.686-15.754q-6.1-2.22-11.961-4.9a97.9,97.9,0,0,1-21.814-13.278c-5.934-4.929-10.745-10.591-13.621-17.029-6-13.406-2.823-28.464,4.024-41.6a129.607,129.607,0,0,1,9.6-15.281c5.286-7.4,11.116-14.585,16.433-21.979,18.923-26.281,31.27-59.531,13.8-86.486-5.02-7.744-12.274-14.543-16.366-22.627C174,102.611,174.4,91.127,176.061,79.973q.324-2.125.684-4.207c2.834-16.54,8.167-34.36,24.611-44.685,17.08-10.729,41.337-10.187,62.535-6.374C296.857,30.7,327.266,43.17,358,54.431s62.884,21.549,96.659,22.653c29.825.977,64.612-6.337,84.406-25.346,19.225-18.463,55.364-19.87,81.411-8.716,17.879,7.654,31.217,21.442,36.843,36.952a48.908,48.908,0,0,1,2.447,9.624,45.14,45.14,0,0,1,.438,9.077c-.078,1.5-.229,2.98-.438,4.446-4.352,30.6-35.68,54.745-54.722,82.083-9.3,13.353-15.875,29.394-9.477,43.793,9.759,21.942,43.7,29.744,64.189,46.072a48.684,48.684,0,0,1,10.072,10.517C679.769,300.117,676.1,319.743,661.29,331.332Z" transform="translate(-55.89 -21.441)" fill="#c12e32" opacity="0.1"/>
  <g id="flowers">
    <path id="Path_200" data-name="Path 200" d="M299.89,346.32s-46-81.52-115.32-105c-29.09-9.86-54.48-28.4-71.84-53.74a238,238,0,0,1-21.2-38.12" transform="translate(-41.89 -21.441)" fill="none" stroke="#535461" stroke-miterlimit="10" stroke-width="2"/>
    <path id="Path_201" data-name="Path 201" d="M47.94,134.37C55.84,142,92.62,150,92.62,150s-9-36.52-16.92-44.19a19.929,19.929,0,1,0-27.761,28.6Z" transform="translate(-41.89 -21.441)" fill="#c12e32"/>
    <path id="Path_202" data-name="Path 202" d="M68.75,200.46c10.79,2.14,46-11.19,46-11.19S87.3,163.51,76.5,161.37a19.928,19.928,0,1,0-7.751,39.094Z" transform="translate(-41.89 -21.441)" fill="#c12e32"/>
    <path id="Path_203" data-name="Path 203" d="M144.5,272c10.4-3.6,34-32.87,34-32.87s-36.68-8.39-47.07-4.79a19.93,19.93,0,1,0,13,37.66Z" transform="translate(-41.89 -21.441)" fill="#c12e32"/>
    <path id="Path_204" data-name="Path 204" d="M214,313.19c10.86-1.8,39.1-26.65,39.1-26.65s-34.73-14.47-45.59-12.68A19.931,19.931,0,1,0,214,313.19Z" transform="translate(-41.89 -21.441)" fill="#c12e32"/>
    <path id="Path_205" data-name="Path 205" d="M145.39,160.73c0,11-19.9,42.93-19.9,42.93s-19.94-31.91-19.95-42.91a19.93,19.93,0,1,1,39.85,0Z" transform="translate(-41.89 -21.441)" fill="#c12e32"/>
    <path id="Path_206" data-name="Path 206" d="M226.07,210c-3.29,10.5-31.84,35-31.84,35s-9.48-36.45-6.23-47a19.93,19.93,0,0,1,38,11.91Z" transform="translate(-41.89 -21.441)" fill="#c12e32"/>
    <path id="Path_207" data-name="Path 207" d="M297.91,268.55c-1.46,10.91-25.46,39.88-25.46,39.88s-15.5-34.28-14-45.19a19.929,19.929,0,1,1,39.5,5.31Z" transform="translate(-41.89 -21.441)" fill="#c12e32"/>
    <path id="Path_208" data-name="Path 208" d="M47.94,134.37C55.84,142,92.62,150,92.62,150s-9-36.52-16.92-44.19a19.929,19.929,0,1,0-27.761,28.6Z" transform="translate(-41.89 -21.441)" opacity="0.25"/>
    <path id="Path_209" data-name="Path 209" d="M68.75,200.46c10.79,2.14,46-11.19,46-11.19S87.3,163.51,76.5,161.37a19.928,19.928,0,1,0-7.751,39.094Z" transform="translate(-41.89 -21.441)" opacity="0.25"/>
    <path id="Path_210" data-name="Path 210" d="M144.5,272c10.4-3.6,34-32.87,34-32.87s-36.68-8.39-47.07-4.79a19.93,19.93,0,1,0,13,37.66Z" transform="translate(-41.89 -21.441)" opacity="0.25"/>
    <path id="Path_211" data-name="Path 211" d="M214,313.19c10.86-1.8,39.1-26.65,39.1-26.65s-34.73-14.47-45.59-12.68A19.931,19.931,0,1,0,214,313.19Z" transform="translate(-41.89 -21.441)" opacity="0.25"/>
    <path id="Path_212" data-name="Path 212" d="M145.39,160.73c0,11-19.9,42.93-19.9,42.93s-19.94-31.91-19.95-42.91a19.93,19.93,0,1,1,39.85,0Z" transform="translate(-41.89 -21.441)" opacity="0.25"/>
    <path id="Path_213" data-name="Path 213" d="M226.07,210c-3.29,10.5-31.84,35-31.84,35s-9.48-36.45-6.23-47a19.93,19.93,0,0,1,38,11.91Z" transform="translate(-41.89 -21.441)" opacity="0.25"/>
    <path id="Path_214" data-name="Path 214" d="M297.91,268.55c-1.46,10.91-25.46,39.88-25.46,39.88s-15.5-34.28-14-45.19a19.929,19.929,0,1,1,39.5,5.31Z" transform="translate(-41.89 -21.441)" opacity="0.25"/>
    <path id="Path_215" data-name="Path 215" d="M297.24,344.7s-9-93.18-62.88-142.74c-22.59-20.8-38.29-48-43.9-78.24a238.149,238.149,0,0,1-3.92-43.45" transform="translate(-41.89 -21.441)" fill="none" stroke="#535461" stroke-miterlimit="10" stroke-width="2"/>
    <path id="Path_216" data-name="Path 216" d="M152.79,48.84c4.12,10.21,34.53,32.36,34.53,32.36s6.55-37.05,2.44-47.26a19.944,19.944,0,1,0-37,14.9Z" transform="translate(-41.89 -21.441)" fill="#c12e32"/>
    <path id="Path_217" data-name="Path 217" d="M145,117.69c9,6.33,46.57,8.4,46.57,8.4S177,91.43,168,85.1a19.944,19.944,0,0,0-23,32.59Z" transform="translate(-41.89 -21.441)" fill="#c12e32"/>
    <path id="Path_218" data-name="Path 218" d="M185.31,213.77c11,.93,44.44-16.26,44.44-16.26s-30.13-22.53-41.1-23.45a19.93,19.93,0,1,0-3.34,39.71Z" transform="translate(-41.89 -21.441)" fill="#c12e32"/>
    <path id="Path_219" data-name="Path 219" d="M232.15,279.61c10.66,2.76,46.55-8.52,46.55-8.52s-25.89-27.3-36.54-30.06a19.929,19.929,0,1,0-10,38.582Z" transform="translate(-41.89 -21.441)" fill="#c12e32"/>
    <path id="Path_220" data-name="Path 220" d="M231.2,112.43c-4.45,10.06-35.59,31.17-35.59,31.17s-5.3-37.24-.85-47.31A19.929,19.929,0,1,1,231.2,112.431Z" transform="translate(-41.89 -21.441)" fill="#c12e32"/>
    <path id="Path_221" data-name="Path 221" d="M285,190.11c-7.26,8.27-43.29,19.1-43.29,19.1s6.08-37.12,13.35-45.39A19.922,19.922,0,0,1,285,190.11Z" transform="translate(-41.89 -21.441)" fill="#c12e32"/>
    <path id="Path_222" data-name="Path 222" d="M327,272.8c-5.76,9.38-39.44,26.14-39.44,26.14s-.28-37.62,5.48-47a19.945,19.945,0,0,1,34,20.86Z" transform="translate(-41.89 -21.441)" fill="#c12e32"/>
  </g>
  <ellipse id="Ellipse_10" data-name="Ellipse 10" cx="111.53" cy="14.52" rx="111.53" ry="14.52" transform="translate(131.672 350.056)" fill="#c12e32" opacity="0.1"/>
  <g id="floor_flowers" data-name="floor flowers" transform="translate(92.258 298.876)">
    <ellipse id="Ellipse_11" data-name="Ellipse 11" cx="33.88" cy="5.8" rx="33.88" ry="5.8" transform="translate(2.843 58.78)" fill="#c12e32" opacity="0.1"/>
    <path id="Path_223" data-name="Path 223" d="M232.14,792.94s5.49,7.19-2.54,18-14.65,20-12,26.77c0,0,12.11-20.15,22-20.43S243,805.06,232.14,792.94Z" transform="translate(-188.057 -792.94)" fill="#c12e32"/>
    <path id="Path_224" data-name="Path 224" d="M232.14,792.94a8.83,8.83,0,0,1,1.12,2.26c9.62,11.3,14.75,21.85,5.5,22.11-8.61.25-18.95,15.65-21.42,19.54a9.241,9.241,0,0,0,.29.89s12.11-20.15,22-20.43S243,805.06,232.14,792.94Z" transform="translate(-188.057 -792.94)" opacity="0.1"/>
    <path id="Path_225" data-name="Path 225" d="M242.35,802.1c0,2.53-.28,4.58-.63,4.58s-.64-2-.64-4.58.36-1.34.71-1.34S242.35,799.57,242.35,802.1Z" transform="translate(-188.057 -792.94)" fill="#ffd037"/>
    <path id="Path_226" data-name="Path 226" d="M245.86,805.12c-2.22,1.21-4.16,1.94-4.33,1.63s1.5-1.54,3.72-2.75,1.34-.33,1.51,0S248.08,803.91,245.86,805.12Z" transform="translate(-188.057 -792.94)" fill="#ffd037"/>
    <path id="Path_227" data-name="Path 227" d="M203.12,792.94s-5.49,7.19,2.54,18,14.65,20,12,26.77c0,0-12.11-20.15-22-20.43S192.28,805.06,203.12,792.94Z" transform="translate(-188.057 -792.94)" fill="#c12e32"/>
    <path id="Path_228" data-name="Path 228" d="M203.12,792.94A8.829,8.829,0,0,0,202,795.2c-9.62,11.3-14.75,21.85-5.5,22.11,8.62.25,18.95,15.65,21.42,19.54a7.105,7.105,0,0,1-.29.89s-12.11-20.15-22-20.43S192.28,805.06,203.12,792.94Z" transform="translate(-188.057 -792.94)" opacity="0.1"/>
    <path id="Path_229" data-name="Path 229" d="M192.91,802.1c0,2.53.28,4.58.63,4.58s.64-2,.64-4.58-.36-1.34-.71-1.34S192.91,799.57,192.91,802.1Z" transform="translate(-188.057 -792.94)" fill="#ffd037"/>
    <path id="Path_230" data-name="Path 230" d="M189.41,805.12c2.22,1.21,4.15,1.94,4.32,1.63s-1.5-1.54-3.72-2.75-1.34-.33-1.51,0S187.19,803.91,189.41,805.12Z" transform="translate(-188.057 -792.94)" fill="#ffd037"/>
    <path id="Path_231" data-name="Path 231" d="M194.66,836.8s15.36-.48,20-3.77,23.62-7.24,24.77-1.95,23.08,26.29,5.74,26.43-40.29-2.7-44.91-5.51S194.66,836.8,194.66,836.8Z" transform="translate(-188.057 -792.94)" fill="#a8a8a8"/>
    <path id="Path_232" data-name="Path 232" d="M245.47,855.67c-17.34.14-40.29-2.7-44.91-5.51-3.52-2.15-4.92-9.84-5.39-13.38h-.51s1,12.38,5.59,15.2,27.57,5.65,44.91,5.51c5,0,6.74-1.82,6.64-4.46C251.11,854.65,249.2,855.64,245.47,855.67Z" transform="translate(-188.057 -792.94)" opacity="0.2"/>
    <path id="Path_233" data-name="Path 233" d="M707.6,836.21s-42.28-2.55-37.29,27.08c0,0-1,5.23,3.75,7.61,0,0,.08-2.19,4.34-1.45a19.361,19.361,0,0,0,4.59.22,9.5,9.5,0,0,0,5.62-2.32h0s11.88-4.9,16.5-24.33c0,0,3.42-4.24,3.29-5.33l-7.14,3s2.44,5.15.52,9.43c0,0-.23-9.24-1.6-9-.28,0-3.71,1.78-3.71,1.78s4.2,9,1,15.48c0,0,1.2-11-2.34-14.83l-5,2.93s4.9,9.26,1.58,16.82c0,0,.85-11.59-2.63-16.11l-4.55,3.55s4.6,9.13,1.79,15.4c0,0-.36-13.49-2.78-14.51,0,0-4,3.51-4.59,5,0,0,3.15,6.62,1.2,10.12,0,0-1.2-9-2.19-9,0,0-4,6-4.38,10,0,0,.18-6.07,3.42-10.61a11.939,11.939,0,0,0-6.07,3.15s.62-4.21,7-4.58c0,0,3.28-4.52,4.16-4.79,0,0-6.4-.54-10.28,1.18,0,0,3.41-4,11.45-2.17l4.49-3.66s-8.42-1.16-12,.12c0,0,4.12-3.52,13.21-1l4.9-2.92s-7.19-1.55-11.47-1c0,0,4.52-2.44,12.9.2l3.5-1.57s-5.27-1-6.81-1.19-1.62-.59-1.62-.59a18.26,18.26,0,0,1,9.89,1.1S707.73,836.68,707.6,836.21Z" transform="translate(-274.127 -792.94)" fill="#c12e32"/>
    <ellipse id="Ellipse_12" data-name="Ellipse 12" cx="29.92" cy="5.06" rx="29.92" ry="5.06" transform="translate(374.434 75.48)" fill="#c12e32" opacity="0.1"/>
    <path id="Path_234" data-name="Path 234" d="M633.53,837.79s-23.84-1.44-21,15.27a4.08,4.08,0,0,0,2.12,4.29s0-1.24,2.45-.82a11.669,11.669,0,0,0,2.58.13,5.47,5.47,0,0,0,3.17-1.31h0s6.7-2.77,9.31-13.72c0,0,1.92-2.39,1.85-3l-4,1.71s1.37,2.91.29,5.32c0,0-.13-5.21-.9-5.09-.16,0-2.09,1-2.09,1s2.36,5,.58,8.73c0,0,.67-6.23-1.32-8.37l-2.83,1.66s2.76,5.22.89,9.48c0,0,.48-6.54-1.49-9.08l-2.56,2s2.59,5.15,1,8.68c0,0-.21-7.61-1.57-8.18a15.643,15.643,0,0,0-2.59,2.79s1.78,3.74.68,5.71c0,0-.68-5.07-1.23-5.09,0,0-2.24,3.36-2.47,5.66a12.15,12.15,0,0,1,1.92-6,6.719,6.719,0,0,0-3.42,1.77s.35-2.38,4-2.58c0,0,1.84-2.55,2.34-2.7,0,0-3.61-.31-5.8.66,0,0,1.93-2.24,6.46-1.22l2.53-2.07s-4.75-.65-6.76.07c0,0,2.32-2,7.45-.54l2.75-1.64a24.708,24.708,0,0,0-6.46-.56s2.55-1.37,7.27.11l2-.88s-3-.59-3.83-.68-.92-.33-.92-.33a10.32,10.32,0,0,1,5.58.62S633.6,838.06,633.53,837.79Z" transform="translate(-266.665 -792.94)" fill="#c12e32"/>
    <ellipse id="Ellipse_13" data-name="Ellipse 13" cx="16.87" cy="2.85" rx="16.87" ry="2.85" transform="translate(335.343 63.02)" fill="#c12e32" opacity="0.1"/>
    <path id="Path_235" data-name="Path 235" d="M678.9,802.38s-28.77-1.74-25.38,18.43a4.92,4.92,0,0,0,2.56,5.18s0-1.49,2.95-1a14.191,14.191,0,0,0,3.12.15,6.59,6.59,0,0,0,3.83-1.58h0s8.09-3.34,11.23-16.57c0,0,2.33-2.88,2.24-3.62l-4.86,2.07s1.66,3.51.36,6.42c0,0-.16-6.29-1.1-6.14-.18,0-2.52,1.21-2.52,1.21s2.86,6.11.7,10.54c0,0,.82-7.52-1.59-10.1l-3.42,2s3.34,6.3,1.08,11.45c0,0,.58-7.89-1.8-11l-3.1,2.41s3.14,6.21,1.23,10.48c0,0-.25-9.18-1.9-9.88,0,0-2.71,2.39-3.12,3.37,0,0,2.15,4.51.81,6.89,0,0-.81-6.11-1.48-6.14,0,0-2.7,4-3,6.83a14.711,14.711,0,0,1,2.32-7.22,8.129,8.129,0,0,0-4.13,2.14s.42-2.87,4.8-3.12c0,0,2.23-3.07,2.83-3.26,0,0-4.36-.36-7,.81,0,0,2.32-2.71,7.8-1.48l3.06-2.49s-5.74-.79-8.17.08c0,0,2.8-2.39,9-.65l3.33-2a32.806,32.806,0,0,0-7.8-.67s3.07-1.66,8.78.13l2.38-1.06s-3.59-.71-4.64-.82-1.1-.4-1.1-.4a12.43,12.43,0,0,1,6.73.75S679,802.7,678.9,802.38Z" transform="translate(-274.127 -792.94)" fill="#c12e32"/>
    <ellipse id="Ellipse_14" data-name="Ellipse 14" cx="20.37" cy="3.44" rx="20.37" ry="3.44" transform="translate(364.594 31.37)" fill="#c12e32" opacity="0.1"/>
  </g>
  <g id="browser" transform="translate(92.619 58.548)">
    <path id="Path_236" data-name="Path 236" d="M677.443,387.557V117H178.65V372.036a98.534,98.534,0,0,0,22.021,14.2q5.9,2.871,12.059,5.249H671.491Z" transform="translate(-178.65 -117)" fill="url(#linear-gradient)"/>
    <path id="Path_237" data-name="Path 237" d="M675.6,387.794V131H180.73V373.083a99.311,99.311,0,0,0,21.834,13.506q5.86,2.7,11.972,4.981H669.685Z" transform="translate(-178.65 -117)" fill="#fff"/>
    <rect id="Rectangle_91" data-name="Rectangle 91" width="494.864" height="25.14" transform="translate(2.09 1.39)" fill="#5a5773"/>
  </g>
  <g id="buttons" transform="translate(93.045 68.033)">
    <circle id="Ellipse_15" data-name="Ellipse 15" cx="6.5" cy="6.5" r="6.5" fill="#fff"/>
    <circle id="Ellipse_16" data-name="Ellipse 16" cx="6.5" cy="6.5" r="6.5" transform="translate(17.5)" fill="#fff"/>
    <circle id="Ellipse_17" data-name="Ellipse 17" cx="6.5" cy="6.5" r="6.5" transform="translate(35)" fill="#fff"/>
  </g>
  <g id="boxes" transform="translate(92.955 88.345)">
    <rect id="Rectangle_92" data-name="Rectangle 92" width="156.5" height="98.34" transform="translate(83.19)" fill="#c12e32"/>
    <rect id="Rectangle_93" data-name="Rectangle 93" width="156.5" height="98.34" fill="#5a5773" opacity="0.2"/>
    <rect id="Rectangle_94" data-name="Rectangle 94" width="156.5" height="98.34" transform="translate(166.38)" fill="#5a5773" opacity="0.2"/>
    <rect id="Rectangle_95" data-name="Rectangle 95" width="156.5" height="98.34" transform="translate(0 66.259)" fill="#5a5773" opacity="0.2"/>
    <rect id="Rectangle_96" data-name="Rectangle 96" width="156.5" height="98.34" transform="translate(83.19 66.259)" fill="#5a5773" opacity="0.2"/>
    <rect id="Rectangle_97" data-name="Rectangle 97" width="156.5" height="98.34" transform="translate(166.38 66.259)" fill="#5a5773" opacity="0.2"/>
    <rect id="Rectangle_98" data-name="Rectangle 98" width="156.5" height="98.34" transform="translate(0 132.513)" fill="#5a5773" opacity="0.2"/>
    <rect id="Rectangle_99" data-name="Rectangle 99" width="156.5" height="98.34" transform="translate(83.19 132.513)" fill="#5a5773" opacity="0.2"/>
    <rect id="Rectangle_100" data-name="Rectangle 100" width="156.5" height="98.34" transform="translate(166.38 132.513)" fill="#5a5773" opacity="0.2"/>
  </g>
  <g id="woman" transform="translate(198.76 107.28)">
    <path id="Path_238" data-name="Path 238" d="M484.775,316.224s-16.756-21.511-13.93-25.011a40.563,40.563,0,0,0,4.906-8.566s6.187-2.973,6.187-4.187,4.9-4.023,7.481-5.246,1.287-7,0-7.7a17.708,17.708,0,0,1-3.332-3.148s1.788-3.5,0-4.547.262-2.093,0-3.148a29.7,29.7,0,0,1,0-4.894,12.006,12.006,0,0,0-6.593-3.349l-.191-.553-1.1-3.261s5.365-7.222-3.338-11a17.4,17.4,0,0,0-1.925-.712,3.3,3.3,0,0,0-.048-.473,21.6,21.6,0,0,0-1.264-5.531c-.453-1.013-1.043-1.7-1.788-1.541a1.379,1.379,0,0,0-.489.2,4.587,4.587,0,0,0-.924.766h0a.175.175,0,0,1-.042.046,10.94,10.94,0,0,0-2.05,4,16.894,16.894,0,0,0-.6,2.512h0a12.354,12.354,0,0,0-1,1.553c-1.055,1.922-2.289,5.25-.042,7.712,1.908,2.093,4.477,4.97,6.342,7.063l.06.067.113.13-.2.088v.322l.173,1.763,1.443,15.231a12.652,12.652,0,0,0-1.323-.2,17.066,17.066,0,0,0-1.925-.088c-1.258-3.471-4.709-6.7-5.365-10.324a6.773,6.773,0,0,1-.1-1.093c.054-2.282.864-4.572.8-6.849a8.846,8.846,0,0,0-.06-1.256h0a2.4,2.4,0,0,0-.048-.347c-.662-3.364-3.644-6.282-7.969-7.8-1.5-.523-3.118-.871-4.572-1.444-3.362-1.323-5.514-3.709-8.566-5.346a12.719,12.719,0,0,0-8.2-1.256q-2.014.213-3.988.578h0a45.494,45.494,0,0,0-9.126,2.663c-.388.163-.775.331-1.145.523a4.262,4.262,0,0,0-1.842,1.511,2.876,2.876,0,0,0-.286,1.629c0,.4,0,.8.036,1.2-.167,6.7-10.443,11.882-11.29,18.421,0,.155-.036.31-.048.465v.716h0v.523c.149,2.868,2.271,5.539,2.659,8.394a6.551,6.551,0,0,1,.06.762,9.434,9.434,0,0,1-1.055,3.843,20.361,20.361,0,0,0-3.7,1.055c-3.123,1.411-8.762,3.848-10.819,8.507a9.086,9.086,0,0,0-.781,3.735,55.578,55.578,0,0,1-1.741,13.335,18.965,18.965,0,0,1-1.1,3.278.552.552,0,0,0-.036.322l-1.24,11.3-.221,1.989-.31,2.83s.089.172.221.461a10.3,10.3,0,0,1,.489,1.306,5,5,0,0,1,.161,2.931,1.99,1.99,0,0,1-.87,1.076.564.564,0,0,0-.1.08,6.69,6.69,0,0,0-.942,2.881c-.107.586-.209,1.256-.31,1.951-.6,4.459-.966,11.132-1.192,16.65-.215,5.443-.292,9.742-.292,9.742a19.214,19.214,0,0,0,3.2,1.114c-.084.147-.173.3-.256.456a16.793,16.793,0,0,0-1.943,5.753c-.5,4.115,1.138,8.687,9.311,11.04q.783.229,1.6.385a7.052,7.052,0,0,0,4.077-.176c0,.247.042.486.06.724.083,1.022.155,1.955.191,2.738a124.387,124.387,0,0,0,1.985,13.464s.6,3.5.077,4.547,0,5.246,0,5.246,1.788,2.093,0,3.148-2.319,6.28-1.788,7a.183.183,0,0,1,.03.079c.393,1.738-1.83,27.553-1.83,27.553s-2.1,3.952-3.779,8.055c-1.633,3.994-2.861,8.13-1.347,8.905a16.914,16.914,0,0,0,4.715.9,3.936,3.936,0,0,1-.06.519c-.215,1.846-.554,3.835-1.043,4.337-.709.712-1.454,6.23-1.818,9.211l-.036.331a25.325,25.325,0,0,0-1.919,3.91s-5.7,10.048-3.773,12.656a2.5,2.5,0,0,0,.709.615h0a1.57,1.57,0,0,0,.185.117c2.748,1.545,9.633,1.867,12.13,1.938l-.1,2.487v.092h3.249v-.063c0-.314.072-1.754.179-3.68,0-.343.036-.7.06-1.072,0-.289.042-.582.06-.883a11.481,11.481,0,0,0,1.413-5.589,17.782,17.782,0,0,1,1.252-6.481,15.047,15.047,0,0,1,1.651-3.161s1.013-3.768-.4-6.435a4.6,4.6,0,0,0-1.192-1.449c0-.088,0-.176,0-.268v-.569a17.274,17.274,0,0,1,.763-5.367.411.411,0,0,1,0-.084c.048-.147.1-.285.155-.419l.036-.092,1.055.025c3.237.063,5.615.063,5.615.063s2.581-9.269,2.325-13.288v-.544a37.31,37.31,0,0,1,1.562-9.424l2.08-14.172s-1.031-2.453,0-4.187c.638-1.08,1.955-3.086,2.873-4.467.429-.641.769-1.143.912-1.361l.083-.117a4.662,4.662,0,0,1-.918-.322h0c-.841-.394-1.592-1.164.924-2.3,3.868-1.75,2.581-6.121,2.581-6.121a2.347,2.347,0,0,1,.2-2.973c1.341-1.4,0-6.644,0-6.644a19.228,19.228,0,0,0,2.647-4.375c.96-2.093,3.386-12.33,4.53-17.266.376-1.62.6-2.667.6-2.667l.036.255.036.276h0l.322,2.332.042.31.6,4.409s1.192,11.589.447,16.131v.084a4.06,4.06,0,0,1-.435,1.378c-1.371,2.177-1.121,10.827-1.049,12.74v.385a5.755,5.755,0,0,0-.727,2.956h0a1.607,1.607,0,0,0,.471.879,1.728,1.728,0,0,1,.459,1.361v.042a3.517,3.517,0,0,1-.072.6,8.942,8.942,0,0,1-.906,2.37s-1.383,2.554-.858,3.889h0a1.154,1.154,0,0,0,.34.473.881.881,0,0,1,.2.5.125.125,0,0,0,0,.046c.483,2.818-.763,15.256-1.5,22.064-.3,2.688-.513,4.5-.513,4.5L434.216,457.7l.2.1c.232.117.668.318,1.252.561v.034l-.089.448a39.429,39.429,0,0,1-1.115,4.371c-.036.1-.066.188-.1.276a7.249,7.249,0,0,0-2.188.616c-4.339,5.413-2.42,9.7,0,10.952a3.884,3.884,0,0,1,1.46,2.558l.6,5.4v.62a1.182,1.182,0,0,0,.113.494l.185,1.637.25,2.277h1.979v-2.759h.107c3.123.075,8.16.167,10.354.046h.06a5.471,5.471,0,0,0,.6-.046,2.039,2.039,0,0,0,.346-.067c1.162-.394,4.059-6.163,1.449-7.473s-3.189-5.024-3.189-5.024c-.227-.486-.453-.946-.685-1.386v-.284a16.281,16.281,0,0,1,.31-4.8,25.965,25.965,0,0,0,.68-5.732v-.532a13.437,13.437,0,0,0,1.329-.305l.1-.029a10.765,10.765,0,0,0,2.223-.925l7.3-22.709.769-2.642,4.381-15.026s-1.544-5.246,0-6.117c.566-.318.721-1.675.686-3.245a47.753,47.753,0,0,0-.686-6.2s2.063-2.273,3.1-3.672,0-5.07,0-5.07l2.033-8.407a62.769,62.769,0,0,1,7.993-18.363c4.172-6.175,1.514-22.851-1.192-31.727-.072-.23-.143-.456-.215-.674v-.034c1.275-.444,2.837-.98,4.506-1.541l.632-.209c2.116-.7,4.357-1.419,6.366-2.018l.131-.038q2.169-.664,4.429-1.164a10.243,10.243,0,0,1,1.359-.2C495.606,329.513,484.775,316.224,484.775,316.224ZM404.12,344.673h1.073c-.125.163-.244.331-.364.5-.071.1-.143.2-.209.3a16.845,16.845,0,0,0-1.055,1.733c.119-.62.268-1.294.435-2.014C404.043,345.029,404.084,344.84,404.12,344.673Zm-2.9,10.915a.22.22,0,0,0,0-.059l-.089-.2c-.066-.134-.125-.268-.185-.419q.554-.117,1.127-.264h.077v.138c-.03.2-.066.393-.1.586h0a.291.291,0,0,1,0,.075,2.928,2.928,0,0,1-.077.46c-.054.3-.107.595-.155.875-.113-.264-.227-.523-.346-.779a1.728,1.728,0,0,1-.25-.419Z" transform="translate(-386.5 -223.338)" fill="url(#linear-gradient-2)"/>
    <path id="Path_239" data-name="Path 239" d="M541,284.92l-10.8,3.82-3.92-6.5c-3-5-7.16-11.84-10.23-16.81-5.42-8.74,1.67-22.06,1.67-22.06S519,230,523.56,225.88s5.83,17.49,5.83,17.49c18.31,8.32,8.5,27.89,8.5,27.89l1.78,7.76Z" transform="translate(-450.762 -223.338)" fill="#efb7b9"/>
    <path id="Path_240" data-name="Path 240" d="M541,284.92l-10.8,3.82-3.92-6.5v-.57s6.19-4.25,13.41-2.65Z" transform="translate(-451.121 -233.134)" opacity="0.1"/>
    <path id="Path_241" data-name="Path 241" d="M523.56,328.72l5.41-4.58-2.71-41.22s14-9.58,24.36,5.41c0,0-.42,9.16,0,11.66s-2.91,5,0,7.49,0,10.83,0,10.83,3.29,5.83,5.37,7.49,4.17,15.41,0,18.32S544,353.7,544,356.61s-10,10-10,10L525.22,355Z" transform="translate(-458.499 -239.878)" fill="#ff6484"/>
    <path id="Path_242" data-name="Path 242" d="M406.56,578.94c-20.18-8.56-15.7-29.47-11.9-40a54.464,54.464,0,0,1,2.67-6.24l11.32-6.87s2.31,5.89,4.78,13.79C419.16,558,425.75,587.09,406.56,578.94Z" transform="translate(-386.5 -415.606)" fill="#efb7b9"/>
    <path id="Path_243" data-name="Path 243" d="M434.3,769.73a34,34,0,0,0-3,8.42,60.806,60.806,0,0,0-1.3,14.33c.08,3.33.36,5.51.36,5.51l-22.48,15.46s.13-1.81.35-4.47c.58-7.08,1.79-20.22,2.93-21.92.79-1.18,1.34-5.92,1.69-10.32s.49-8.26.49-8.26S440.39,758.34,434.3,769.73Z" transform="translate(-391.961 -586.26)" fill="#efb7b9"/>
    <path id="Path_244" data-name="Path 244" d="M487.39,780.82s0,4.3-.16,9.3-.46,10.9-1.09,13.65c-.58,2.52-.62,7.15-.51,11.42.15,5,.51,9.5.51,9.5s-22.95-21.7-20.61-23.42c.63-.46,1.25-2.31,1.82-4.77.7-3,1.33-7,1.8-10.4.56-4.05.91-7.31.91-7.31Z" transform="translate(-422.846 -594.449)" fill="#efb7b9"/>
    <path id="Path_245" data-name="Path 245" d="M434.3,769.73a34,34,0,0,0-3,8.42,183.721,183.721,0,0,1-18.4-1.41c.34-4.3.49-8.26.49-8.26S440.39,758.34,434.3,769.73Z" transform="translate(-396.901 -556.472)" opacity="0.1"/>
    <path id="Path_246" data-name="Path 246" d="M487.39,780.82s0,4.3-.16,9.3c-7.16,1.83-14.52-1.83-18.08-4,.56-4.05.91-7.31.91-7.31Z" transform="translate(-423.69 -570.371)" opacity="0.1"/>
    <path id="Path_247" data-name="Path 247" d="M474.005,537.732c-4.909,13.2-6.919,28.846-6.919,28.846l-1.785,13.2s.9,5.767,0,7.964-2.68,5.773-2.68,5.773,1.34,13.46,0,14.832,0,9.613,0,9.613l-4.464,27.711-6.249,35.708c-6.024,6.05-14.041-1.643-14.041-1.643l1.768-23.35s2.68-40.907,1.565-42.583.445-6.868.445-6.868,1.565-4.949.45-6.869.22-6.044.22-6.044-.445-16.759.895-20.605,0-27.639,0-27.639l-.536-7.41-.311-4.1-.027-.4s-.2,1.643-.536,4.19c-.986,7.753-3.087,23.818-3.918,27.124a40.31,40.31,0,0,1-2.288,6.869s1.158,8.241,0,10.438a6.168,6.168,0,0,0-.177,4.671s1.115,6.868-2.235,9.613,0,4.124,0,4.124-2.455,6.6-3.344,9.336,0,6.6,0,6.6l-1.785,22.248s-1.565,9.336-1.34,15.657-2.01,20.876-2.01,20.876-17.182,0-19.829-2.474,4.421-26.609,4.421-26.609,2.01-42.306,1.56-43.4,0-9.343,1.565-10.986,0-4.949,0-4.949-.445-6.6,0-8.241-.07-7.146-.07-7.146-1.5-13.46-1.715-21.153-1.34-24.993-1.34-24.993,1.168-10.7,1.345-15.8a21.083,21.083,0,0,1,1.608-6.42,61.833,61.833,0,0,1,3.323-7.178s52.869-19.24,55.088-17.326c.589.508,1.447,3.959,2.294,8.953C475.313,501.839,477.617,528.033,474.005,537.732Z" transform="translate(-386.5 -446.912)" fill="#444053"/>
    <circle id="Ellipse_18" data-name="Ellipse 18" cx="28.73" cy="28.73" r="28.73" transform="translate(23.577 32.852)" fill="#a1616a"/>
    <path id="Path_248" data-name="Path 248" d="M472.421,492.59c-1.557,1.7-2.6,2.87-2.6,2.87s-21.932,22.07-28.169,20.82c-4.826-1-17.144-.43-22.511-.15.848-3.771,1.822-7.407,2.916-10.88,0,0,46.4-29.15,48.352-26.25C470.926,479.79,471.678,485,472.421,492.59Z" transform="translate(-392.529 -381.121)" opacity="0.1"/>
    <path id="Path_249" data-name="Path 249" d="M428.918,330.51s-14.931,4.034-18.455,7.991-10.5,11.6-10.5,28-1.633,33.195-2.57,37.987,14.718,43.587,14.718,43.587L406.5,506.865s22.445-1.2,29.919,0,33.628-20,33.628-20,15.42-13.994,18.691-14.407-6.543-30.793-6.543-30.793S467,392.49,469.571,384.49a166.084,166.084,0,0,0,4.455-19.594l-2.806-40.782s-4.2-2.4-7.71,2-15.42,2-15.42,2Z" transform="translate(-386.5 -281.981)" fill="#ff6484"/>
    <path id="Path_250" data-name="Path 250" d="M408.44,404.91,398,407.82,395.11,447s3.75,10.41,0,13.74-4.58,74.53-4.58,74.53,12.08,8.74,26.23,2.08c0,0-2.08-7.91,4.17-36.64s6.24-43.3,6.24-43.3,0-35.81,2.92-41.64,0-20.4,0-20.4-5.83-7.91-5.42-10.82S408.44,404.91,408.44,404.91Z" transform="translate(-386.5 -344.646)" opacity="0.1"/>
    <path id="Path_251" data-name="Path 251" d="M413.43,539.65a26.59,26.59,0,0,1-18.77-.68,54.459,54.459,0,0,1,2.67-6.24l11.32-6.87S411,531.75,413.43,539.65Z" transform="translate(-386.5 -403.487)" opacity="0.1"/>
    <path id="Path_252" data-name="Path 252" d="M407.81,404.91l-10.41,2.91L394.49,447s3.75,10.41,0,13.74-4.58,74.53-4.58,74.53S402,544,416.14,537.31c0,0-2.08-7.91,4.16-36.64s6.25-43.3,6.25-43.3,0-35.81,2.91-41.64,0-20.4,0-20.4-5.83-7.91-5.41-10.82S407.81,404.91,407.81,404.91Z" transform="translate(-386.5 -344.621)" fill="#ff6484"/>
    <path id="Path_253" data-name="Path 253" d="M514.4,411.15s-5.41,46.63-21.24,55.38C493.16,466.53,528.55,456.54,514.4,411.15Z" transform="translate(-436.474 -342.89)" opacity="0.1"/>
    <path id="Path_254" data-name="Path 254" d="M434.88,415.32s19.56,9.57,15,16.23S434.88,415.32,434.88,415.32Z" transform="translate(-407.928 -338.079)" opacity="0.1"/>
    <path id="Path_255" data-name="Path 255" d="M434.88,434.47s12.49,12.91,10,17.49S434.88,434.47,434.88,434.47Z" transform="translate(-407.244 -349.66)" opacity="0.1"/>
    <path id="Path_256" data-name="Path 256" d="M535.63,327.47s4.9,8.32,5.37,13.74S535.63,327.47,535.63,327.47Z" transform="translate(-452.785 -281.625)" opacity="0.1"/>
    <path id="Path_257" data-name="Path 257" d="M535.63,316.23s2.46-2.09,8.74,0S535.63,316.23,535.63,316.23Z" transform="translate(-455.689 -262.982)" opacity="0.1"/>
    <path id="Path_258" data-name="Path 258" d="M511.59,559.58a57.9,57.9,0,0,1-30.45-3.9l-5.25,13.44-.58-6.22c.86-5.22,2.53-10.81,5.83-12.22C481.14,550.68,492.7,559.89,511.59,559.58Z" transform="translate(-431.539 -419.292)" opacity="0.1"/>
    <path id="Path_259" data-name="Path 259" d="M426.18,577.07s25.61,5.31,32.79,4.37Z" transform="translate(-406.141 -430.427)" opacity="0.1"/>
    <path id="Path_260" data-name="Path 260" d="M428.84,583.78s10.93-.47,16.39,1.72Z" transform="translate(-405.334 -433.429)" opacity="0.1"/>
    <path id="Path_261" data-name="Path 261" d="M430.09,588.31a98,98,0,0,0,15.14,2Z" transform="translate(-405.741 -436.174)" opacity="0.1"/>
    <path id="Path_262" data-name="Path 262" d="M429.46,645.61c.47-.31,21.86-5.31,24.52-1.72Z" transform="translate(-406.62 -468.222)" opacity="0.1"/>
    <path id="Path_263" data-name="Path 263" d="M429.46,652.17s18.58-2.19,19.05,0S429.46,652.17,429.46,652.17Z" transform="translate(-405.93 -472.826)" opacity="0.1"/>
    <path id="Path_264" data-name="Path 264" d="M429.46,658.1s19.83-4.1,22.17-3.1S429.46,658.1,429.46,658.1Z" transform="translate(-406.337 -475.472)" opacity="0.1"/>
    <path id="Path_265" data-name="Path 265" d="M430.4,798l-22.48,15.46s.13-1.81.35-4.47c5-12.3,11.51-18.79,11.51-18.79,5.07-1.32,8.27-.1,10.26,2.29C430.12,795.81,430.4,798,430.4,798Z" transform="translate(-391.896 -586.623)" opacity="0.1"/>
    <path id="Path_266" data-name="Path 266" d="M432.59,811.89a55.791,55.791,0,0,0-4.69,23,35.67,35.67,0,0,1-4.76,18.51,18.241,18.241,0,0,1-1.58,2.26s-15.62-.13-21.09-4.66a5.409,5.409,0,0,1-1.47-1.8c-3.13-6.24,6.09-30.13,6.09-30.13,4.84-18.42,14.67-28.26,14.67-28.26C437.27,786.28,432.59,811.89,432.59,811.89Z" transform="translate(-386.5 -594.449)" fill="#444053"/>
    <path id="Path_267" data-name="Path 267" d="M423.14,853.35a18.236,18.236,0,0,1-1.58,2.26s-15.62-.13-21.09-4.66c2.69-8.9,11.27-35.83,15.29-31.25C419.54,824,422.17,844.69,423.14,853.35Z" transform="translate(-386.5 -594.449)" opacity="0.1"/>
    <path id="Path_268" data-name="Path 268" d="M421,821.37l-1.09,40.34h5.24s.85-35.39,3.19-40.34S421,821.37,421,821.37Z" transform="translate(-400.696 -594.449)" fill="#444053"/>
    <path id="Path_269" data-name="Path 269" d="M486.14,824.69s-22.95-21.7-20.61-23.42c.63-.46,1.25-2.31,1.82-4.77,4.41-.77,12,1.07,18.28,18.69C485.78,820.19,486.14,824.69,486.14,824.69Z" transform="translate(-422.557 -594.449)" opacity="0.1"/>
    <path id="Path_270" data-name="Path 270" d="M489.57,848.89a2.33,2.33,0,0,1-.55.16c-2.7.47-12.65.2-18.22,0a3.94,3.94,0,0,1-3.81-3.93c0-1.5,0-3.33-.12-5.28-.26-6.16-1-13.49-3.21-15.14-3.91-3-7-13.18,0-26.07,0,0,13.42-10.25,23.1,20.56,0,0,.94,8.79,5.15,11.91S491.45,848,489.57,848.89Z" transform="translate(-422.964 -594.449)" fill="#444053"/>
    <path id="Path_271" data-name="Path 271" d="M489,849.05c-2.7.47-12.65.2-18.22,0a3.94,3.94,0,0,1-3.81-3.93c0-1.5,0-3.33-.12-5.28,1.69-7.46,4.12-15.14,7.25-16.89C474.12,822.94,483.59,821.87,489,849.05Z" transform="translate(-423.561 -594.449)" opacity="0.1"/>
    <path id="Path_272" data-name="Path 272" d="M423.46,800.58l2.52,33.57h3.2V797.72Z" transform="translate(-377.51 -572.989)" fill="#444053"/>
    <path id="Path_273" data-name="Path 273" d="M457.912,239.138a35.26,35.26,0,0,0-18.755,8.039,9.565,9.565,0,0,0-3.536,4.737,20.815,20.815,0,0,0-.285,5.86c.2,16.82-13.858,29.547-13.418,46.357.176,6.671,2.687,12.883,3.148,19.535.769,11.1-4.151,21.3-8.865,30.494,4.857.394,9.641-1.722,13.36-5.909a178.924,178.924,0,0,1,1.867,68.128h6.742a3.935,3.935,0,0,1,1.969.322,5.366,5.366,0,0,1,1.559,1.553c6.3,8.371,10.527,20.746,8.118,32.174l14.348-7.179c3.433-1.719,6.918-3.467,9.9-6.3a20.022,20.022,0,0,0,6.12-11.77c.388-2.93.264-6.427,2.072-8.127a9.69,9.69,0,0,1,2.826-1.4c3.938-1.856,5.681-7.931,6.486-13.4a102.523,102.523,0,0,0,.915-20.385c-.637-11.428-3.17-23.032-1.083-34.186,1.179-6.261,3.8-12.092,4.012-18.558.344-10.656-5.9-19.838-6.83-30.436-.651-7.384,1.347-14.856.7-22.241-.734-7.735-4.251-14.506-9.422-18.138-1.764-1.211-3.66-2.022-5.4-3.36-3.975-3.077-6.515-8.615-10.124-12.424s-9.619-5.245-12.335-.293Z" transform="translate(-404.983 -223.338)" opacity="0.1"/>
    <path id="Path_274" data-name="Path 274" d="M457.916,237.889a35.055,35.055,0,0,0-18.757,8.134,9.668,9.668,0,0,0-3.536,4.794,21.306,21.306,0,0,0-.286,5.93c.2,17.02-13.859,29.9-13.42,46.918.176,6.741,2.687,13.027,3.148,19.768.769,11.228-4.151,21.556-8.866,30.867,4.856.385,9.637-1.755,13.361-5.98a183.082,183.082,0,0,1,1.867,68.919h6.743a3.9,3.9,0,0,1,1.969.336,5.239,5.239,0,0,1,1.559,1.562c6.3,8.48,10.528,20.993,8.119,32.557l14.35-7.265c3.434-1.74,6.919-3.509,9.906-6.375a20.338,20.338,0,0,0,6.121-11.91c.388-2.965.264-6.5,2.072-8.223a9.646,9.646,0,0,1,2.826-1.413c3.939-1.878,5.681-8.026,6.487-13.561a104.941,104.941,0,0,0,.937-20.647c-.637-11.564-3.17-23.306-1.084-34.593,1.179-6.336,3.8-12.236,4.012-18.779.344-10.783-5.9-20.074-6.831-30.8-.652-7.472,1.347-15.023.7-22.505-.737-7.826-4.253-14.676-9.422-18.354-1.764-1.226-3.661-2.046-5.4-3.39-3.975-3.123-6.516-8.727-10.125-12.582s-9.62-5.308-12.336-.3Z" transform="translate(-404.986 -223.338)" fill="#925978"/>
    <g id="Group_18" data-name="Group 18" transform="translate(11.209 29.472)" opacity="0.1">
      <path id="Path_275" data-name="Path 275" d="M442.32,252.81a11.123,11.123,0,0,0-.06,1.16C442.29,253.59,442.31,253.2,442.32,252.81Z" transform="translate(-423.182 -252.81)"/>
      <path id="Path_276" data-name="Path 276" d="M515,292.84c.36-5.3,1.54-10.62,1.1-15.9C515.77,282.24,514.59,287.56,515,292.84Z" transform="translate(-445.2 -252.81)"/>
      <path id="Path_277" data-name="Path 277" d="M428.31,319.19c-.58-6.2-3.47-12-4.15-18.19a22.8,22.8,0,0,0-.15,3.42c.24,6.75,3.59,13.06,4.27,19.78A27,27,0,0,0,428.31,319.19Z" transform="translate(-416.2 -253.491)"/>
      <path id="Path_278" data-name="Path 278" d="M519,343.82a42.881,42.881,0,0,0-1,12.42,37.657,37.657,0,0,1,1-7.21c1.61-6.41,5.19-12.38,5.48-19a20.608,20.608,0,0,0-.16-3.52C523.54,332.46,520.43,338,519,343.82Z" transform="translate(-445.2 -253.89)"/>
      <path id="Path_279" data-name="Path 279" d="M434.45,344.36a26,26,0,0,1-14.76,6c-1.14,1.78-2.32,3.52-3.49,5.24a26,26,0,0,0,18.25-6.05A138,138,0,0,1,440.27,387,138.31,138.31,0,0,0,434.45,344.36Z" transform="translate(-416.2 -254.261)"/>
      <path id="Path_280" data-name="Path 280" d="M519.19,399.65c-1.1,5.6-3.48,11.82-8.86,13.71a15,15,0,0,0-3.86,1.44c-2.47,1.74-2.3,5.34-2.83,8.32-.86,4.94-4.27,9.14-8.36,12s-8.84,4.7-13.53,6.46l-18.7,7a25.808,25.808,0,0,1-.9,5.55l19.6-7.35c4.69-1.76,9.45-3.55,13.53-6.45s7.5-7.11,8.36-12.05c.53-3,.36-6.58,2.83-8.32a15.4,15.4,0,0,1,3.86-1.43c5.38-1.9,7.76-8.12,8.86-13.72a78.42,78.42,0,0,0,1.41-17.7A78.3,78.3,0,0,1,519.19,399.65Z" transform="translate(-445.2 -255.325)"/>
      <path id="Path_281" data-name="Path 281" d="M451.06,416a6.611,6.611,0,0,0-2.13-1.59,7.15,7.15,0,0,0-2.69-.34h-8.17c-.32,1.74-.66,3.48-1,5.21h9.21a7,7,0,0,1,2.69.34,6.58,6.58,0,0,1,2.13,1.58c6.3,6.28,11.07,14.74,11.89,23.42C464,434.24,458.62,423.56,451.06,416Z" transform="translate(-423.558 -255.325)"/>
    </g>
    <path id="Path_282" data-name="Path 282" d="M405.37,450.08s7.44-3.12,9.1,0S405.37,450.08,405.37,450.08Z" transform="translate(-389.445 -354.916)" opacity="0.1"/>
    <path id="Path_283" data-name="Path 283" d="M408,455.43s7.44-3.12,9.11,0S408,455.43,408,455.43Z" transform="translate(-391.835 -358.039)" opacity="0.1"/>
  </g>
  <g id="leaves" transform="translate(363.131 8.619)">
    <path id="Path_284" data-name="Path 284" d="M869.11,51.68s-38.05-2.29-33.56,24.37c0,0-.89,4.71,3.38,6.85,0,0,.07-2,3.9-1.31a17.511,17.511,0,0,0,4.13.2A8.57,8.57,0,0,0,852,79.7h0s10.69-4.41,14.85-21.89c0,0,3.08-3.82,3-4.8l-6.42,2.75s2.19,4.63.46,8.48c0,0-.2-8.32-1.44-8.12-.25,0-3.33,1.6-3.33,1.6s3.77,8.07.92,13.94c0,0,1.08-9.94-2.1-13.35L853.4,61s4.41,8.33,1.42,15.13c0,0,.77-10.43-2.37-14.49l-4.1,3.19S852.5,73,850,78.64c0,0-.33-12.15-2.51-13.06,0,0-3.58,3.16-4.12,4.46,0,0,2.83,6,1.07,9.1,0,0-1.08-8.08-2-8.12,0,0-3.57,5.36-3.94,9a19.51,19.51,0,0,1,3.07-9.55,10.67,10.67,0,0,0-5.46,2.84s.55-3.79,6.34-4.13c0,0,2.95-4.06,3.74-4.31,0,0-5.76-.48-9.25,1.07,0,0,3.07-3.58,10.31-2l4-3.3s-7.58-1-10.8.11c0,0,3.7-3.16,11.89-.86l4.4-2.63s-6.46-1.4-10.31-.89c0,0,4.06-2.19,11.6.18l3.15-1.41s-4.74-.93-6.12-1.08-1.46-.53-1.46-.53a16.36,16.36,0,0,1,8.89,1S869.22,52.1,869.11,51.68Z" transform="translate(-759.362 -30.06)" fill="#c12e32" opacity="0.1"/>
    <path id="Path_285" data-name="Path 285" d="M814.88,30.06s-32,20.71-12.59,39.52c0,0,2.07,4.32,6.78,3.52,0,0-1.12-1.64,2.37-3.37a17.359,17.359,0,0,0,3.45-2.29,8.61,8.61,0,0,0,2.83-4.67h0s6-9.9-1-26.44c0,0,.22-4.9-.46-5.62l-3.54,6s4.51,2.43,5.4,6.55c0,0-5.09-6.57-6-5.68-.18.18-1.74,3.27-1.74,3.27s7.83,4.26,9,10.67c0,0-5-8.65-9.61-9.5l-2.08,4.8s8.5,4.1,10.12,11.35c0,0-5.57-8.86-10.5-10.27l-1.4,5s8.2,4.16,9.51,10.2c0,0-7.46-9.58-9.76-9,0,0-1,4.66-.68,6,0,0,5.82,3.12,6.26,6.7,0,0-5.66-5.87-6.39-5.38,0,0,.3,6.43,2.17,9.61a19.53,19.53,0,0,1-3.18-9.51,10.7,10.7,0,0,0-2.72,5.52s-1.8-3.38,2.67-7.08c0,0,0-5,.45-5.69,0,0-4.92,3-6.82,6.34,0,0,.36-4.7,7.15-7.68l1.3-5.05s-6.72,3.66-8.63,6.49c0,0,1.11-4.74,9.06-7.74l2-4.73s-6,2.71-8.84,5.4c0,0,2-4.18,9.46-6.73l1.7-3s-4.37,2.06-5.57,2.76-1.49.44-1.49.44a16.39,16.39,0,0,1,7.75-4.47S815.22,30.34,814.88,30.06Z" transform="translate(-759.362 -30.06)" fill="#c12e32" opacity="0.1"/>
    <path id="Path_286" data-name="Path 286" d="M766.18,54.19s-19.13,33,6.7,40.93c0,0,3.81,2.91,7.64,0,0,0-1.73-.94.59-4.07a17.51,17.51,0,0,0,2-3.6,8.64,8.64,0,0,0,.41-5.45h0s.85-11.54-12.9-23.11c0,0-2-4.46-3-4.79l-.43,7s5.12.12,7.79,3.39c0,0-7.52-3.55-7.9-2.36-.08.24-.07,3.7-.07,3.7S776,66.1,780,71.28c0,0-8.4-5.43-12.87-4.11l.32,5.22s9.43-.2,14.16,5.53c0,0-9-5.37-14-4.39l1,5.09s9.2,0,13.1,4.78c0,0-11-5.16-12.79-3.63,0,0,1.21,4.62,2.13,5.69,0,0,6.6.14,8.62,3.13,0,0-7.71-2.67-8.14-1.89,0,0,3.19,5.59,6.3,7.57a19.53,19.53,0,0,1-7.15-7,10.71,10.71,0,0,0,.08,6.15s-3.14-2.19-.84-7.52c0,0-2.3-4.46-2.17-5.27,0,0-3,4.93-3.2,8.74,0,0-1.82-4.35,2.88-10.08l-1.13-5.1s-4.33,6.31-4.75,9.7c0,0-1.16-4.73,4.57-11l-.38-5.11s-4.14,5.15-5.42,8.82c0,0-.14-4.62,5.37-10.29l.15-3.45s-3,3.81-3.71,5S761,68.88,761,68.88a16.46,16.46,0,0,1,4.88-7.51S766.6,54.28,766.18,54.19Z" transform="translate(-759.362 -30.06)" fill="#c12e32" opacity="0.1"/>
  </g>
  <path id="Path_287" data-name="Path 287" d="M930.43,430.37a14.31,14.31,0,1,0,14.31,14.31,14.31,14.31,0,0,0-14.31-14.31ZM888.59,318.08v14.31H902.9l25.76,52.18L917.89,402.1a13.759,13.759,0,0,0-1.79,6.8c0,9.58,6.55,14.31,15.43,14.31h83.67V409.45H933.28a1.69,1.69,0,0,1-1.79-1.79,9,9,0,0,1,.76-1.78l7.15-11.29h53.31a14,14,0,0,0,12.52-7.51L1031,342.77a8.31,8.31,0,0,0,.72-3.58,6.88,6.88,0,0,0-7.16-6.8H918.65l-6.8-14.31Zm112.29,112.29a14.31,14.31,0,1,0,14.32,14.313,14.31,14.31,0,0,0-14.32-14.313Z" transform="translate(-505.246 -216.583)" fill="#c12e32"/>
  <path id="Path_288" data-name="Path 288" d="M940.67,336.21h-12v-12h-9v12h-12v9h12v12h9v-12h12Z" transform="translate(-423.473 -185.494)" fill="#fff"/>
</svg>
